<svg xmlns="http://www.w3.org/2000/svg" xmlns:xlink="http://www.w3.org/1999/xlink" width="364" zoomAndPan="magnify" viewBox="0 0 273 43.499998" height="58" preserveAspectRatio="xMidYMid meet" version="1.0"><defs><g/></defs><g fill="#ffffff" fill-opacity="1"><g transform="translate(63.192423, 33.139939)"><g><path d="M 21.035156 0 L 17.03125 -14.054688 L 13.023438 0 L 6.679688 0 L -0.457031 -25.042969 L 5.890625 -25.042969 L 10.167969 -7.863281 L 10.320312 -7.863281 L 14.875 -25.042969 L 19.183594 -25.042969 L 23.738281 -7.863281 L 23.890625 -7.863281 L 28.171875 -25.042969 L 34.484375 -25.042969 L 27.351562 0 Z M 21.035156 0 "/></g></g></g><g fill="#ffffff" fill-opacity="1"><g transform="translate(95.703857, 33.139939)"><g><path d="M 17.578125 -7.042969 L 6.285156 -7.042969 C 6.285156 -5.949219 6.636719 -5.140625 7.347656 -4.613281 C 8.054688 -4.089844 8.824219 -3.824219 9.652344 -3.824219 C 10.523438 -3.824219 11.210938 -3.941406 11.71875 -4.175781 C 12.222656 -4.40625 12.800781 -4.867188 13.449219 -5.554688 L 17.332031 -3.613281 C 15.714844 -0.902344 13.023438 0.457031 9.257812 0.457031 C 6.910156 0.457031 4.898438 -0.347656 3.21875 -1.957031 C 1.539062 -3.566406 0.699219 -5.503906 0.699219 -7.769531 C 0.699219 -10.039062 1.539062 -11.980469 3.21875 -13.597656 C 4.898438 -15.21875 6.910156 -16.027344 9.257812 -16.027344 C 11.726562 -16.027344 13.734375 -15.316406 15.285156 -13.886719 C 16.832031 -12.460938 17.605469 -10.421875 17.605469 -7.769531 C 17.605469 -7.40625 17.597656 -7.164062 17.578125 -7.042969 Z M 6.433594 -10.015625 L 12.355469 -10.015625 C 12.234375 -10.828125 11.914062 -11.449219 11.398438 -11.882812 C 10.882812 -12.320312 10.21875 -12.535156 9.410156 -12.535156 C 8.519531 -12.535156 7.8125 -12.304688 7.285156 -11.839844 C 6.757812 -11.375 6.476562 -10.765625 6.433594 -10.015625 Z M 6.433594 -10.015625 "/></g></g></g><g fill="#ffffff" fill-opacity="1"><g transform="translate(112.490805, 33.139939)"><g><path d="M 2.882812 -1.925781 C 1.425781 -3.515625 0.699219 -5.464844 0.699219 -7.769531 C 0.699219 -10.078125 1.425781 -12.03125 2.882812 -13.628906 C 4.339844 -15.230469 6.191406 -16.027344 8.4375 -16.027344 C 10.503906 -16.027344 12.203125 -15.378906 13.539062 -14.085938 L 13.539062 -15.574219 L 18.910156 -15.574219 L 18.910156 0 L 13.597656 0 L 13.597656 -1.761719 L 13.539062 -1.761719 C 12.203125 -0.285156 10.503906 0.457031 8.4375 0.457031 C 6.191406 0.457031 4.339844 -0.339844 2.882812 -1.925781 Z M 7.453125 -10.414062 C 6.753906 -9.722656 6.40625 -8.84375 6.40625 -7.769531 C 6.40625 -6.699219 6.738281 -5.824219 7.40625 -5.144531 C 8.074219 -4.46875 8.953125 -4.128906 10.046875 -4.128906 C 11.101562 -4.128906 11.964844 -4.472656 12.644531 -5.160156 C 13.320312 -5.847656 13.660156 -6.71875 13.660156 -7.769531 C 13.660156 -8.84375 13.3125 -9.722656 12.613281 -10.414062 C 11.914062 -11.101562 11.058594 -11.445312 10.046875 -11.445312 C 9.015625 -11.445312 8.152344 -11.101562 7.453125 -10.414062 Z M 7.453125 -10.414062 "/></g></g></g><g fill="#ffffff" fill-opacity="1"><g transform="translate(131.706246, 33.139939)"><g><path d="M 2.730469 -15.574219 L 2.730469 -21.371094 L 8.105469 -21.371094 L 8.105469 -15.574219 L 11.382812 -15.574219 L 11.382812 -11.476562 L 8.105469 -11.476562 L 8.105469 -6.527344 C 8.105469 -5.089844 8.511719 -4.371094 9.320312 -4.371094 C 9.523438 -4.371094 9.734375 -4.410156 9.957031 -4.492188 C 10.179688 -4.574219 10.351562 -4.65625 10.472656 -4.734375 L 10.65625 -4.855469 L 11.992188 -0.515625 C 10.835938 0.132812 9.523438 0.457031 8.042969 0.457031 C 7.03125 0.457031 6.164062 0.277344 5.433594 -0.0742188 C 4.707031 -0.429688 4.152344 -0.90625 3.78125 -1.503906 C 3.40625 -2.101562 3.136719 -2.726562 2.976562 -3.382812 C 2.8125 -4.042969 2.730469 -4.746094 2.730469 -5.496094 L 2.730469 -11.476562 L 0.484375 -11.476562 L 0.484375 -15.574219 Z M 2.730469 -15.574219 "/></g></g></g><g fill="#ffffff" fill-opacity="1"><g transform="translate(142.179119, 33.139939)"><g><path d="M 1.820312 0 L 1.820312 -26.105469 L 7.195312 -26.105469 L 7.195312 -13.933594 L 7.253906 -13.933594 C 8.652344 -15.328125 10.140625 -16.027344 11.71875 -16.027344 C 12.488281 -16.027344 13.25 -15.925781 14.007812 -15.722656 C 14.769531 -15.523438 15.496094 -15.207031 16.195312 -14.785156 C 16.894531 -14.359375 17.460938 -13.757812 17.894531 -12.976562 C 18.328125 -12.199219 18.546875 -11.292969 18.546875 -10.261719 L 18.546875 0 L 13.175781 0 L 13.175781 -8.804688 C 13.175781 -9.613281 12.917969 -10.320312 12.402344 -10.929688 C 11.882812 -11.535156 11.210938 -11.839844 10.382812 -11.839844 C 9.574219 -11.839844 8.839844 -11.523438 8.179688 -10.898438 C 7.523438 -10.269531 7.195312 -9.574219 7.195312 -8.804688 L 7.195312 0 Z M 1.820312 0 "/></g></g></g><g fill="#ffffff" fill-opacity="1"><g transform="translate(160.726725, 33.139939)"><g><path d="M 17.578125 -7.042969 L 6.285156 -7.042969 C 6.285156 -5.949219 6.636719 -5.140625 7.347656 -4.613281 C 8.054688 -4.089844 8.824219 -3.824219 9.652344 -3.824219 C 10.523438 -3.824219 11.210938 -3.941406 11.71875 -4.175781 C 12.222656 -4.40625 12.800781 -4.867188 13.449219 -5.554688 L 17.332031 -3.613281 C 15.714844 -0.902344 13.023438 0.457031 9.257812 0.457031 C 6.910156 0.457031 4.898438 -0.347656 3.21875 -1.957031 C 1.539062 -3.566406 0.699219 -5.503906 0.699219 -7.769531 C 0.699219 -10.039062 1.539062 -11.980469 3.21875 -13.597656 C 4.898438 -15.21875 6.910156 -16.027344 9.257812 -16.027344 C 11.726562 -16.027344 13.734375 -15.316406 15.285156 -13.886719 C 16.832031 -12.460938 17.605469 -10.421875 17.605469 -7.769531 C 17.605469 -7.40625 17.597656 -7.164062 17.578125 -7.042969 Z M 6.433594 -10.015625 L 12.355469 -10.015625 C 12.234375 -10.828125 11.914062 -11.449219 11.398438 -11.882812 C 10.882812 -12.320312 10.21875 -12.535156 9.410156 -12.535156 C 8.519531 -12.535156 7.8125 -12.304688 7.285156 -11.839844 C 6.757812 -11.375 6.476562 -10.765625 6.433594 -10.015625 Z M 6.433594 -10.015625 "/></g></g></g><g fill="#ffffff" fill-opacity="1"><g transform="translate(177.51367, 33.139939)"><g><path d="M 1.820312 0 L 1.820312 -15.574219 L 7.195312 -15.574219 L 7.195312 -13.328125 L 7.253906 -13.328125 C 7.296875 -13.40625 7.363281 -13.507812 7.453125 -13.628906 C 7.542969 -13.75 7.742188 -13.964844 8.042969 -14.265625 C 8.347656 -14.570312 8.671875 -14.84375 9.015625 -15.085938 C 9.359375 -15.328125 9.804688 -15.546875 10.351562 -15.738281 C 10.898438 -15.933594 11.453125 -16.027344 12.019531 -16.027344 C 12.609375 -16.027344 13.183594 -15.945312 13.75 -15.785156 C 14.316406 -15.625 14.734375 -15.460938 14.996094 -15.300781 L 15.421875 -15.054688 L 13.175781 -10.503906 C 12.507812 -11.070312 11.574219 -11.351562 10.382812 -11.351562 C 9.734375 -11.351562 9.175781 -11.210938 8.710938 -10.929688 C 8.246094 -10.644531 7.917969 -10.300781 7.726562 -9.894531 C 7.535156 -9.492188 7.398438 -9.148438 7.316406 -8.863281 C 7.234375 -8.582031 7.195312 -8.359375 7.195312 -8.195312 L 7.195312 0 Z M 1.820312 0 "/></g></g></g><g fill="#ffffff" fill-opacity="1"><g transform="translate(191.11322, 33.139939)"><g><path d="M 7.527344 -15.542969 L 7.527344 0 L 1.820312 0 L 1.820312 -25.042969 L 7.527344 -25.042969 L 17.484375 -9.5 L 17.546875 -9.5 L 17.546875 -25.042969 L 23.253906 -25.042969 L 23.253906 0 L 17.546875 0 L 7.589844 -15.542969 Z M 7.527344 -15.542969 "/></g></g></g><g fill="#ffffff" fill-opacity="1"><g transform="translate(214.669601, 33.139939)"><g><path d="M 17.578125 -7.042969 L 6.285156 -7.042969 C 6.285156 -5.949219 6.636719 -5.140625 7.347656 -4.613281 C 8.054688 -4.089844 8.824219 -3.824219 9.652344 -3.824219 C 10.523438 -3.824219 11.210938 -3.941406 11.71875 -4.175781 C 12.222656 -4.40625 12.800781 -4.867188 13.449219 -5.554688 L 17.332031 -3.613281 C 15.714844 -0.902344 13.023438 0.457031 9.257812 0.457031 C 6.910156 0.457031 4.898438 -0.347656 3.21875 -1.957031 C 1.539062 -3.566406 0.699219 -5.503906 0.699219 -7.769531 C 0.699219 -10.039062 1.539062 -11.980469 3.21875 -13.597656 C 4.898438 -15.21875 6.910156 -16.027344 9.257812 -16.027344 C 11.726562 -16.027344 13.734375 -15.316406 15.285156 -13.886719 C 16.832031 -12.460938 17.605469 -10.421875 17.605469 -7.769531 C 17.605469 -7.40625 17.597656 -7.164062 17.578125 -7.042969 Z M 6.433594 -10.015625 L 12.355469 -10.015625 C 12.234375 -10.828125 11.914062 -11.449219 11.398438 -11.882812 C 10.882812 -12.320312 10.21875 -12.535156 9.410156 -12.535156 C 8.519531 -12.535156 7.8125 -12.304688 7.285156 -11.839844 C 6.757812 -11.375 6.476562 -10.765625 6.433594 -10.015625 Z M 6.433594 -10.015625 "/></g></g></g><g fill="#ffffff" fill-opacity="1"><g transform="translate(231.456546, 33.139939)"><g><path d="M 8.589844 -16.027344 C 9.480469 -16.027344 10.363281 -15.925781 11.230469 -15.722656 C 12.101562 -15.523438 12.75 -15.320312 13.175781 -15.117188 L 13.8125 -14.8125 L 12.050781 -11.292969 C 10.835938 -11.941406 9.683594 -12.265625 8.589844 -12.265625 C 7.984375 -12.265625 7.554688 -12.199219 7.300781 -12.066406 C 7.046875 -11.933594 6.921875 -11.6875 6.921875 -11.324219 C 6.921875 -11.242188 6.929688 -11.160156 6.953125 -11.078125 C 6.972656 -11 7.011719 -10.921875 7.074219 -10.851562 C 7.132812 -10.78125 7.1875 -10.722656 7.238281 -10.671875 C 7.289062 -10.621094 7.375 -10.5625 7.496094 -10.503906 C 7.621094 -10.441406 7.714844 -10.398438 7.785156 -10.367188 C 7.855469 -10.335938 7.972656 -10.289062 8.136719 -10.230469 C 8.296875 -10.167969 8.417969 -10.125 8.5 -10.09375 C 8.582031 -10.0625 8.71875 -10.015625 8.910156 -9.957031 C 9.101562 -9.894531 9.25 -9.855469 9.351562 -9.835938 C 9.976562 -9.652344 10.523438 -9.449219 10.988281 -9.226562 C 11.453125 -9.003906 11.945312 -8.703125 12.460938 -8.316406 C 12.976562 -7.933594 13.375 -7.449219 13.660156 -6.859375 C 13.945312 -6.273438 14.085938 -5.605469 14.085938 -4.855469 C 14.085938 -1.316406 11.625 0.457031 6.707031 0.457031 C 5.59375 0.457031 4.539062 0.285156 3.535156 -0.0625 C 2.535156 -0.40625 1.8125 -0.75 1.367188 -1.09375 L 0.699219 -1.640625 L 2.882812 -5.3125 C 3.046875 -5.171875 3.257812 -5.003906 3.519531 -4.8125 C 3.785156 -4.621094 4.261719 -4.355469 4.949219 -4.023438 C 5.636719 -3.6875 6.234375 -3.519531 6.738281 -3.519531 C 7.851562 -3.519531 8.410156 -3.894531 8.410156 -4.644531 C 8.410156 -4.988281 8.265625 -5.257812 7.984375 -5.449219 C 7.699219 -5.640625 7.21875 -5.859375 6.542969 -6.101562 C 5.863281 -6.34375 5.332031 -6.566406 4.949219 -6.769531 C 3.976562 -7.273438 3.207031 -7.847656 2.640625 -8.484375 C 2.074219 -9.121094 1.789062 -9.96875 1.789062 -11.019531 C 1.789062 -12.597656 2.402344 -13.828125 3.628906 -14.707031 C 4.851562 -15.585938 6.507812 -16.027344 8.589844 -16.027344 Z M 8.589844 -16.027344 "/></g></g></g><g fill="#ffffff" fill-opacity="1"><g transform="translate(244.873966, 33.139939)"><g><path d="M 2.730469 -15.574219 L 2.730469 -21.371094 L 8.105469 -21.371094 L 8.105469 -15.574219 L 11.382812 -15.574219 L 11.382812 -11.476562 L 8.105469 -11.476562 L 8.105469 -6.527344 C 8.105469 -5.089844 8.511719 -4.371094 9.320312 -4.371094 C 9.523438 -4.371094 9.734375 -4.410156 9.957031 -4.492188 C 10.179688 -4.574219 10.351562 -4.65625 10.472656 -4.734375 L 10.65625 -4.855469 L 11.992188 -0.515625 C 10.835938 0.132812 9.523438 0.457031 8.042969 0.457031 C 7.03125 0.457031 6.164062 0.277344 5.433594 -0.0742188 C 4.707031 -0.429688 4.152344 -0.90625 3.78125 -1.503906 C 3.40625 -2.101562 3.136719 -2.726562 2.976562 -3.382812 C 2.8125 -4.042969 2.730469 -4.746094 2.730469 -5.496094 L 2.730469 -11.476562 L 0.484375 -11.476562 L 0.484375 -15.574219 Z M 2.730469 -15.574219 "/></g></g></g><path fill="#ffffff" d="M 56.3125 23.378906 C 55.835938 22.378906 55.023438 21.851562 54.089844 21.65625 C 54.332031 21.429688 54.539062 21.15625 54.722656 20.847656 C 55.171875 20.105469 55.367188 19.234375 55.386719 18.371094 C 55.425781 16.597656 54.707031 14.808594 53.601562 13.445312 C 51.503906 10.847656 47.683594 10.875 44.910156 12.460938 C 45.207031 10.960938 45.011719 9.328125 44.171875 8.070312 C 43.191406 6.589844 41.527344 5.800781 39.820312 5.53125 C 36.222656 4.96875 31.738281 6.175781 29.40625 9.113281 C 28.546875 10.183594 28.210938 11.34375 28.3125 12.546875 C 28.03125 12.339844 27.734375 12.152344 27.472656 11.992188 C 26.714844 11.550781 25.882812 11.25 25.015625 11.128906 C 23.230469 10.886719 21.28125 11.46875 19.898438 12.628906 C 18.824219 13.53125 17.84375 14.890625 17.46875 16.25 C 17.3125 16.8125 17.226562 17.5 17.449219 18.050781 C 17.460938 18.082031 17.480469 18.109375 17.488281 18.144531 C 13.078125 16.289062 7.898438 23.570312 11.109375 27.5 C 12.398438 29.074219 14.460938 29.675781 16.414062 29.9375 C 16.757812 32.703125 18.28125 35.117188 20.878906 36.296875 C 23.417969 37.460938 26.472656 37.339844 28.84375 35.828125 C 29.898438 35.152344 30.722656 34.261719 31.355469 33.230469 C 33.449219 36.316406 37.074219 38.332031 40.800781 36.730469 C 43.078125 35.746094 45.738281 33.222656 46.152344 30.539062 C 48.296875 32.085938 51.59375 32.132812 53.835938 30.855469 C 56.320312 29.441406 57.574219 26.015625 56.3125 23.378906 Z M 54.414062 28.269531 C 53.445312 29.617188 51.773438 30.085938 50.195312 30.023438 C 48.476562 29.945312 46.980469 29.085938 45.964844 27.714844 C 45.738281 27.414062 45.429688 27.3125 45.160156 27.339844 C 44.675781 27.253906 44.105469 27.660156 44.292969 28.25 C 44.777344 29.742188 44.507812 31.0625 43.636719 32.347656 C 42.789062 33.597656 41.5 34.65625 40.097656 35.21875 C 36.773438 36.558594 33.488281 34.179688 31.992188 31.261719 C 31.65625 30.605469 30.824219 30.886719 30.589844 31.449219 C 29.378906 34.367188 26.371094 35.902344 23.296875 35.480469 C 20.179688 35.058594 17.757812 32.601562 17.542969 29.414062 C 17.527344 29.066406 17.292969 28.859375 16.957031 28.820312 C 14.332031 28.519531 10.941406 27.328125 11.222656 24.101562 C 11.40625 21.925781 13.050781 19.769531 15.023438 18.898438 C 16.144531 18.398438 17.449219 18.382812 18.476562 19.113281 C 18.609375 19.207031 18.777344 18.992188 18.65625 18.878906 C 18.589844 18.820312 18.535156 18.773438 18.46875 18.726562 C 18.449219 18.363281 18.207031 18.035156 18.207031 17.628906 C 18.199219 17.078125 18.414062 16.5625 18.644531 16.074219 C 19.132812 15.070312 19.871094 14.066406 20.777344 13.410156 C 21.953125 12.554688 23.566406 12.125 24.996094 12.414062 C 25.714844 12.566406 26.378906 12.863281 26.984375 13.269531 C 27.667969 13.71875 28.164062 14.386719 28.824219 14.835938 C 29.367188 15.199219 29.917969 14.507812 29.667969 13.992188 C 29.546875 13.738281 29.367188 13.503906 29.164062 13.277344 C 29.011719 10.578125 31.386719 8.457031 33.824219 7.527344 C 36.4375 6.535156 40.539062 6.035156 42.628906 8.382812 C 43.972656 9.882812 43.515625 11.878906 43.273438 13.671875 C 43.273438 13.679688 43.273438 13.691406 43.273438 13.699219 C 43.226562 13.746094 43.191406 13.785156 43.144531 13.832031 C 42.902344 14.09375 43.21875 14.542969 43.535156 14.339844 C 43.546875 14.328125 43.5625 14.320312 43.574219 14.308594 C 43.816406 14.488281 44.160156 14.480469 44.339844 14.121094 C 44.394531 14.019531 44.441406 13.90625 44.488281 13.792969 C 46.992188 12.546875 50.445312 11.992188 52.363281 14.308594 C 53.203125 15.324219 53.753906 16.691406 53.789062 18.015625 C 53.835938 19.535156 53.0625 20.386719 52.035156 21.375 C 51.734375 21.65625 51.828125 22.019531 52.082031 22.226562 C 52.136719 22.359375 52.257812 22.460938 52.453125 22.453125 C 55.628906 22.394531 55.863281 26.242188 54.414062 28.269531 Z M 54.414062 28.269531 " fill-opacity="1" fill-rule="nonzero"/></svg>